<svg width="200" height="200" viewBox="0 0 200 200" fill="none" xmlns="http://www.w3.org/2000/svg">
    <rect width="200" height="200" rx="12" fill="#F5F5F5"/>
    <path d="M130 60H70C64.4772 60 60 64.4772 60 70V130C60 135.523 64.4772 140 70 140H130C135.523 140 140 135.523 140 130V70C140 64.4772 135.523 60 130 60Z" stroke="#CCCCCC" stroke-width="4" stroke-linecap="round" stroke-linejoin="round"/>
    <path d="M80 90C85.5228 90 90 85.5228 90 80C90 74.4772 85.5228 70 80 70C74.4772 70 70 74.4772 70 80C70 85.5228 74.4772 90 80 90Z" stroke="#CCCCCC" stroke-width="4" stroke-linecap="round" stroke-linejoin="round"/>
    <path d="M140 110L115 85L70 130" stroke="#CCCCCC" stroke-width="4" stroke-linecap="round" stroke-linejoin="round"/>
</svg> 